<svg width="25" height="23" viewBox="0 0 25 23" fill="none" xmlns="http://www.w3.org/2000/svg">
<path fill-rule="evenodd" clip-rule="evenodd" d="M15.0115 20.647V2.50748C15.0115 1.69483 15.0093 1.16794 14.958 0.78171C14.9088 0.418919 14.8296 0.305059 14.766 0.241431C14.7023 0.177803 14.5885 0.0985474 14.2257 0.0494311C13.8383 -0.00191772 13.3126 -0.00415039 12.4999 -0.00415039C11.6873 -0.00415039 11.1604 -0.00191772 10.7741 0.0494311C10.4114 0.0985474 10.2975 0.177803 10.2339 0.241431C10.1702 0.305059 10.091 0.418919 10.0419 0.78171C9.99051 1.16906 9.98828 1.69483 9.98828 2.50748V20.647H15.0115Z" fill="#8D14E5"/>
<path opacity="0.7" d="M8.31403 7.53081C8.31403 7.30877 8.22582 7.09582 8.06881 6.93882C7.91181 6.78181 7.69886 6.6936 7.47682 6.6936H4.12798C3.90594 6.6936 3.69299 6.78181 3.53598 6.93882C3.37898 7.09582 3.29077 7.30877 3.29077 7.53081V20.6471H8.31403V7.53081ZM21.7094 13.1122C21.7094 12.8902 21.6212 12.6772 21.4642 12.5202C21.3072 12.3632 21.0942 12.275 20.8722 12.275H17.5233C17.3013 12.275 17.0883 12.3632 16.9313 12.5202C16.7743 12.6772 16.6861 12.8902 16.6861 13.1122V20.6471H21.7094V13.1122Z" fill="#8D14E5"/>
<path opacity="0.5" d="M1.33721 20.647C1.11517 20.647 0.90222 20.7352 0.745213 20.8922C0.588206 21.0492 0.5 21.2621 0.5 21.4842C0.5 21.7062 0.588206 21.9192 0.745213 22.0762C0.90222 22.2332 1.11517 22.3214 1.33721 22.3214H23.6628C23.8848 22.3214 24.0978 22.2332 24.2548 22.0762C24.4118 21.9192 24.5 21.7062 24.5 21.4842C24.5 21.2621 24.4118 21.0492 24.2548 20.8922C24.0978 20.7352 23.8848 20.647 23.6628 20.647H1.33721Z" fill="#8D14E5"/>
</svg>
