<svg width="25" height="25" viewBox="0 0 25 25" fill="none" xmlns="http://www.w3.org/2000/svg">
<path d="M21.1596 8.57367H22.3182C22.8968 8.57367 23.4518 8.80354 23.861 9.21271C24.2701 9.62188 24.5 10.1768 24.5 10.7555V15.1191C24.5 15.6978 24.2701 16.2527 23.861 16.6619C23.4518 17.0711 22.8968 17.3009 22.3182 17.3009H21.1596C20.8937 19.41 19.8672 21.3495 18.2728 22.7555C16.6784 24.1615 14.6258 24.9373 12.5 24.9373V22.7555C14.236 22.7555 15.9008 22.0659 17.1283 20.8384C18.3558 19.6109 19.0455 17.946 19.0455 16.21V9.66458C19.0455 7.92861 18.3558 6.26375 17.1283 5.03624C15.9008 3.80873 14.236 3.11912 12.5 3.11912C10.764 3.11912 9.09918 3.80873 7.87167 5.03624C6.64415 6.26375 5.95455 7.92861 5.95455 9.66458V17.3009H2.68182C2.10316 17.3009 1.54821 17.0711 1.13904 16.6619C0.72987 16.2527 0.5 15.6978 0.5 15.1191V10.7555C0.5 10.1768 0.72987 9.62188 1.13904 9.21271C1.54821 8.80354 2.10316 8.57367 2.68182 8.57367H3.84036C4.10658 6.46482 5.13318 4.5256 6.72753 3.11986C8.32189 1.71412 10.3744 0.938477 12.5 0.938477C14.6256 0.938477 16.6781 1.71412 18.2725 3.11986C19.8668 4.5256 20.8934 6.46482 21.1596 8.57367ZM2.68182 10.7555V15.1191H3.77273V10.7555H2.68182ZM21.2273 10.7555V15.1191H22.3182V10.7555H21.2273ZM7.87455 17.0664L9.03091 15.2162C10.0706 15.8675 11.2731 16.212 12.5 16.21C13.7269 16.212 14.9294 15.8675 15.9691 15.2162L17.1255 17.0664C15.7392 17.9349 14.1359 18.3944 12.5 18.3918C10.8641 18.3944 9.26078 17.935 7.87455 17.0664Z" fill="#8D14E5"/>
</svg>
