<svg width="25" height="30" viewBox="0 0 25 30" fill="none" xmlns="http://www.w3.org/2000/svg">
<path fill-rule="evenodd" clip-rule="evenodd" d="M5.624 1.49585C5.21105 2.44203 4.99859 3.46349 5 4.49585C5 5.2915 5.31607 6.05457 5.87868 6.61718C6.44129 7.17978 7.20435 7.49585 8 7.49585H17C17.7956 7.49585 18.5587 7.17978 19.1213 6.61718C19.6839 6.05457 20 5.2915 20 4.49585C20 3.42935 19.778 2.41385 19.376 1.49585H21.5C22.2956 1.49585 23.0587 1.81192 23.6213 2.37453C24.1839 2.93714 24.5 3.7002 24.5 4.49585V26.9959C24.5 27.7915 24.1839 28.5546 23.6213 29.1172C23.0587 29.6798 22.2956 29.9959 21.5 29.9959H3.5C2.70435 29.9959 1.94129 29.6798 1.37868 29.1172C0.81607 28.5546 0.5 27.7915 0.5 26.9959V4.49585C0.5 3.7002 0.81607 2.93714 1.37868 2.37453C1.94129 1.81192 2.70435 1.49585 3.5 1.49585H5.624ZM12.5 17.9959H8C7.60218 17.9959 7.22064 18.1539 6.93934 18.4352C6.65804 18.7165 6.5 19.098 6.5 19.4959C6.5 19.8937 6.65804 20.2752 6.93934 20.5565C7.22064 20.8378 7.60218 20.9959 8 20.9959H12.5C12.8978 20.9959 13.2794 20.8378 13.5607 20.5565C13.842 20.2752 14 19.8937 14 19.4959C14 19.098 13.842 18.7165 13.5607 18.4352C13.2794 18.1539 12.8978 17.9959 12.5 17.9959ZM17 11.9959H8C7.61768 11.9963 7.24995 12.1427 6.97195 12.4051C6.69394 12.6676 6.52665 13.0263 6.50424 13.4079C6.48184 13.7896 6.60601 14.1654 6.8514 14.4586C7.09678 14.7518 7.44486 14.9402 7.8245 14.9854L8 14.9959H17C17.3978 14.9959 17.7794 14.8378 18.0607 14.5565C18.342 14.2752 18.5 13.8937 18.5 13.4959C18.5 13.098 18.342 12.7165 18.0607 12.4352C17.7794 12.1539 17.3978 11.9959 17 11.9959ZM12.5 -0.00414552C13.1333 -0.00507864 13.7596 0.128106 14.3376 0.386644C14.9157 0.645182 15.4325 1.02321 15.854 1.49585C16.496 2.21285 16.91 3.13535 16.9865 4.15385L17 4.49585H8C8 3.40835 8.3855 2.41085 9.0275 1.63385L9.146 1.49585C9.971 0.574854 11.168 -0.00414552 12.5 -0.00414552Z" fill="#8D14E5"/>
</svg>
