<svg width="27" height="28" viewBox="0 0 27 28" fill="none" xmlns="http://www.w3.org/2000/svg">
<path d="M22.6538 25.7598H2.34615V5.45211H14.5492L16.3954 3.60596H2.34615C1.85652 3.60596 1.38695 3.80046 1.04073 4.14668C0.694505 4.4929 0.5 4.96248 0.5 5.45211V25.7598C0.5 26.2494 0.694505 26.719 1.04073 27.0652C1.38695 27.4115 1.85652 27.606 2.34615 27.606H22.6538C23.1435 27.606 23.6131 27.4115 23.9593 27.0652C24.3055 26.719 24.5 26.2494 24.5 25.7598V11.9136L22.6538 13.7598V25.7598Z" fill="#8D14E5"/>
<path d="M26.0263 4.77795L22.6523 1.41008C22.5026 1.2602 22.3247 1.14129 22.1289 1.06015C21.933 0.979019 21.7231 0.937256 21.511 0.937256C21.299 0.937256 21.089 0.979019 20.8931 1.06015C20.6973 1.14129 20.5194 1.2602 20.3697 1.41008L6.64347 15.1914L5.53216 19.9983C5.48482 20.2313 5.4898 20.4719 5.54674 20.7028C5.60368 20.9336 5.71117 21.149 5.86148 21.3335C6.01178 21.5179 6.20117 21.6668 6.41602 21.7695C6.63087 21.8721 6.86583 21.9259 7.10402 21.9271C7.22712 21.9406 7.35135 21.9406 7.47445 21.9271L12.3302 20.8578L26.0263 7.05651C26.1765 6.90704 26.2956 6.72947 26.3769 6.53397C26.4582 6.33848 26.5 6.12889 26.5 5.91723C26.5 5.70556 26.4582 5.49597 26.3769 5.30048C26.2956 5.10498 26.1765 4.92741 26.0263 4.77795ZM11.2889 19.009L7.62463 19.8184L8.47563 16.1907L18.8078 5.8073L21.6311 8.62551L11.2889 19.009ZM22.7625 7.49623L19.9391 4.67801L21.491 3.09901L24.3343 5.93721L22.7625 7.49623Z" fill="#8D14E5"/>
</svg>
