<svg width="25" height="21" viewBox="0 0 25 21" fill="none" xmlns="http://www.w3.org/2000/svg">
<path d="M15.5588 11.6784V0.321533H18.0686V9.16859L15.5588 11.6784ZM0.5 20.4V0.321533H3.0098V20.4H0.5ZM8.02941 5.34114V0.321533H10.5392V5.34114H8.02941ZM8.02941 12.8706V7.85095H10.5392V12.8706H8.02941ZM8.02941 20.4V15.3804H10.5392V20.4H8.02941ZM23.2451 12.8706L20.5784 10.2039L21.4882 9.29408C21.7183 9.06402 22.0111 8.94898 22.3667 8.94898C22.7222 8.94898 23.015 9.06402 23.2451 9.29408L24.1549 10.2039C24.385 10.434 24.5 10.7268 24.5 11.0823C24.5 11.4379 24.385 11.7307 24.1549 11.9607L23.2451 12.8706ZM13.049 20.4V17.7333L19.7 11.0823L22.3667 13.749L15.7157 20.4H13.049Z" fill="#8D14E5"/>
</svg>
