<svg width="25" height="30" viewBox="0 0 25 30" fill="none" xmlns="http://www.w3.org/2000/svg">
<path d="M24.5 8.31817V29.9384H0.5V0.399902H16.5817L24.5 8.31817ZM17.1154 7.78452H21.3413L17.1154 3.55856V7.78452ZM22.6538 9.63067H15.2692V2.24606H2.34615V28.0922H22.6538V9.63067ZM15.2692 13.323H20.8077V18.8614H15.2692V13.323ZM17.1154 17.0153H18.9615V15.1691H17.1154V17.0153ZM4.19231 15.1691H13.4231V17.0153H4.19231V15.1691ZM4.19231 7.78452H13.4231V9.63067H4.19231V7.78452ZM15.2692 20.7076H20.8077V26.2461H15.2692V20.7076ZM17.1154 24.3999H18.9615V22.5537H17.1154V24.3999ZM4.19231 22.5537H13.4231V24.3999H4.19231V22.5537Z" fill="#8D14E5"/>
</svg>
